<svg width="24" height="24" viewBox="0 0 24 24" fill="none" xmlns="http://www.w3.org/2000/svg">
<path d="M23.4516 20.7962L17.8406 15.1859C19.1166 13.2918 19.7461 10.9254 19.4091 8.40378C18.8344 4.1147 15.3188 0.624292 11.025 0.0807409C4.64106 -0.72697 -0.727088 4.64058 0.0807586 11.0238C0.624511 15.319 4.11577 18.837 8.40579 19.4089C10.9277 19.7458 13.2949 19.1166 15.1886 17.8406L20.7996 23.4509C21.5318 24.183 22.7191 24.183 23.4513 23.4509C24.1828 22.7179 24.1828 21.5274 23.4516 20.7962ZM3.70777 9.74894C3.70777 6.44086 6.39935 3.74958 9.7078 3.74958C13.0162 3.74958 15.7078 6.44086 15.7078 9.74894C15.7078 13.057 13.0162 15.7483 9.7078 15.7483C6.39935 15.7483 3.70777 13.058 3.70777 9.74894Z" fill="black" fill-opacity="0.5"/>
</svg>
